<?xml version="1.0" encoding="utf-8"?>
<!-- Generator: Adobe Illustrator 19.1.0, SVG Export Plug-In . SVG Version: 6.00 Build 0)  -->
<svg version="1.1" id="Layer_1" xmlns="http://www.w3.org/2000/svg" xmlns:xlink="http://www.w3.org/1999/xlink" x="0px" y="0px"
	 viewBox="0 0 1396.5 949.3" style="enable-background:new 0 0 1396.5 949.3;" xml:space="preserve">
<style type="text/css">
	.st0{fill:#44B767;}
</style>
<path class="st0" d="M816.1,234.2c-4.7-10.4-17.6-14.7-28.7-9.7c-4.4,2-7.9,5.2-10.2,8.9l-0.2-0.3c0,0-3.5-0.5-6,0.3
	c-2.5,0.8-19.6,11.1-19.6,11.1l-17.1-19.7c0,0-1-2.9-0.4-4c0.6-1.1,7-0.7,9.8-2.4c2.8-1.6,10.7-6.8,9.5-18.4l-2.4-10.5
	c0,0,6.7-3.7,4.8-12.2c-1.9-8.5-12.3-5.1-12.3-5.1l-5.4-9.8l14.4-15.9c0,0,1.8-2.4-0.7-6.3c-1.6-2.3-7.9-1-7.9-1l-18.6,4.1
	c0,0-12.3-11.6-14.3-11.9c-2-0.3-50.3,28.9-50.7,31.1c-0.4,2.2,3.5,17.1,3.5,17.1l-15.8,19.1c0,0-2.5,3.4-0.9,6
	c1.6,2.5,4.7,1.7,4.7,1.7l24.1-3.8l10.5,20c0,0-29.6,66.3-31.6,69.3c-2,3.1-47.4,52.8-47.5,55c-0.1,2.2,2,13.2,18,24.6
	s37.9,19.5,43.6,12.9s-9.4-26.2-9.4-26.2l41.6-37.3c0,0,56.6,60.3,59.3,60.8c2.7,0.6,14.7-0.5,28.5-15.7
	c13.8-15.2,20.7-26.3,16.4-32.2c-4.3-5.9-22.6,1.4-22.6,1.4s-33.8-33.7-33.6-36.4c0.2-7.4,41.3-28.5,43.3-31.4
	c0.6-0.9,1.1-2,1.4-3.1c3.7,0.2,7.5-0.4,11.1-2C815.6,257.1,820.8,244.6,816.1,234.2z"/>
<g>
	<path d="M388.3,526.7c0.3-0.7,0.6-1.5,0.9-2.2c0.3-0.7,0.6-1.4,1-2.1l38.9-68.8c0.4-0.6,0.7-1,1.1-1.1c0.4-0.1,0.9-0.2,1.5-0.2h5
		v99h-6.3V467c0-1.2,0.1-2.5,0.2-3.9l-39,69.2c-0.7,1.2-1.6,1.8-2.8,1.8h-1.1c-1.2,0-2.1-0.6-2.8-1.8l-40-69.3
		c0.1,1.4,0.2,2.7,0.2,3.9v84.4h-6.2v-99h4.9c0.7,0,1.2,0.1,1.6,0.2c0.4,0.1,0.8,0.5,1.2,1.1l40,68.9
		C387.2,523.8,387.8,525.2,388.3,526.7z"/>
	<path d="M454.5,551.4v-69.7h3.5c0.8,0,1.4,0.2,1.7,0.5c0.3,0.3,0.5,0.9,0.6,1.7l0.6,14.7c2.2-5.6,5.2-10.1,9-13.3s8.3-4.8,13.8-4.8
		c2.1,0,4,0.2,5.8,0.7c1.8,0.4,3.5,1.1,5,1.9l-0.9,4.6c-0.1,0.7-0.6,1.1-1.4,1.1c-0.3,0-0.7-0.1-1.2-0.3c-0.5-0.2-1.2-0.4-1.9-0.6
		c-0.8-0.2-1.7-0.4-2.8-0.6c-1.1-0.2-2.4-0.3-3.8-0.3c-5.3,0-9.6,1.6-13,4.9c-3.4,3.3-6.1,8-8.2,14.1v45.3H454.5z"/>
	<path d="M575.5,546.7c3.4,0,6.5-0.2,9.3-0.5c2.8-0.4,5.4-0.9,7.8-1.6c2.4-0.7,4.7-1.6,6.9-2.6c2.2-1,4.4-2.1,6.5-3.4V512h-19
		c-0.5,0-0.9-0.2-1.3-0.5c-0.3-0.3-0.5-0.7-0.5-1.1v-3.9h27.4v35.2c-2.5,1.7-5,3.3-7.7,4.6c-2.7,1.4-5.5,2.5-8.5,3.4
		c-3,0.9-6.3,1.6-9.8,2.1s-7.3,0.7-11.5,0.7c-7.1,0-13.7-1.2-19.6-3.6c-5.9-2.4-11-5.8-15.2-10.2c-4.2-4.4-7.5-9.7-9.8-16
		c-2.3-6.3-3.5-13.2-3.5-20.9c0-7.7,1.2-14.6,3.5-20.8c2.3-6.2,5.6-11.6,9.9-16c4.3-4.4,9.5-7.8,15.6-10.2c6.1-2.4,13-3.6,20.6-3.6
		c3.8,0,7.3,0.3,10.5,0.8c3.2,0.5,6.2,1.3,8.9,2.3c2.8,1,5.3,2.2,7.7,3.7c2.4,1.5,4.7,3.2,6.9,5.1l-1.9,3.1c-0.4,0.7-1,1-1.8,1
		c-0.4,0-0.8-0.1-1.2-0.3c-0.7-0.3-1.7-0.9-3-2c-1.3-1-3.1-2.1-5.4-3.2c-2.3-1.1-5.1-2.1-8.5-3c-3.4-0.9-7.5-1.3-12.4-1.3
		c-6.4,0-12.2,1-17.4,3.1c-5.2,2.1-9.6,5-13.3,8.8c-3.7,3.8-6.5,8.5-8.5,14c-2,5.5-3,11.7-3,18.5c0,7,1,13.3,3,18.8
		c2,5.6,4.8,10.3,8.4,14.1c3.6,3.8,8,6.8,13,8.9C563.8,545.7,569.4,546.7,575.5,546.7z"/>
	<path d="M627.5,551.4v-69.7h3.5c0.8,0,1.4,0.2,1.7,0.5c0.3,0.3,0.5,0.9,0.6,1.7l0.6,14.7c2.2-5.6,5.2-10.1,9-13.3
		c3.7-3.2,8.3-4.8,13.8-4.8c2.1,0,4,0.2,5.8,0.7s3.5,1.1,5,1.9l-0.9,4.6c-0.1,0.7-0.6,1.1-1.4,1.1c-0.3,0-0.7-0.1-1.2-0.3
		c-0.5-0.2-1.2-0.4-1.9-0.6s-1.7-0.4-2.8-0.6s-2.4-0.3-3.8-0.3c-5.3,0-9.6,1.6-13,4.9c-3.4,3.3-6.1,8-8.2,14.1v45.3H627.5z"/>
	<path d="M699.2,480.6c3.9,0,7.5,0.7,10.9,2c3.3,1.4,6.2,3.3,8.7,5.9s4.4,5.8,5.7,9.6c1.4,3.8,2.1,8.1,2.1,13c0,1-0.2,1.7-0.5,2.1
		c-0.3,0.4-0.8,0.6-1.4,0.6h-50.3v1.3c0,5.2,0.6,9.8,1.8,13.8c1.2,4,2.9,7.3,5.2,10c2.2,2.7,4.9,4.7,8.1,6.1c3.2,1.4,6.7,2,10.6,2
		c3.5,0,6.5-0.4,9.1-1.2c2.6-0.8,4.7-1.6,6.5-2.6c1.8-1,3.1-1.8,4.2-2.6c1-0.8,1.8-1.2,2.2-1.2c0.6,0,1.1,0.2,1.4,0.7l1.8,2.2
		c-1.1,1.4-2.6,2.7-4.4,3.9c-1.8,1.2-3.9,2.3-6.2,3.1c-2.3,0.9-4.7,1.6-7.3,2.1s-5.2,0.8-7.8,0.8c-4.8,0-9.1-0.8-13-2.5
		c-3.9-1.7-7.3-4.1-10.1-7.2c-2.8-3.2-5-7.1-6.5-11.7c-1.5-4.6-2.3-9.9-2.3-15.8c0-5,0.7-9.6,2.1-13.8c1.4-4.2,3.5-7.9,6.2-10.9
		s6-5.4,9.9-7.2C689.8,481.5,694.2,480.6,699.2,480.6z M699.3,485.6c-3.6,0-6.8,0.6-9.6,1.7c-2.8,1.1-5.3,2.7-7.4,4.8
		c-2.1,2.1-3.8,4.6-5,7.6c-1.3,2.9-2.1,6.2-2.6,9.9h45.9c0-3.7-0.5-7.1-1.5-10c-1-3-2.5-5.5-4.3-7.5c-1.9-2.1-4.1-3.6-6.7-4.7
		C705.3,486.1,702.4,485.6,699.3,485.6z"/>
	<path d="M764,480.6c3.9,0,7.5,0.7,10.9,2c3.3,1.4,6.2,3.3,8.7,5.9s4.4,5.8,5.7,9.6c1.4,3.8,2.1,8.1,2.1,13c0,1-0.2,1.7-0.5,2.1
		c-0.3,0.4-0.8,0.6-1.4,0.6h-50.3v1.3c0,5.2,0.6,9.8,1.8,13.8c1.2,4,2.9,7.3,5.2,10c2.2,2.7,4.9,4.7,8.1,6.1c3.2,1.4,6.7,2,10.6,2
		c3.5,0,6.5-0.4,9.1-1.2c2.6-0.8,4.7-1.6,6.5-2.6c1.8-1,3.1-1.8,4.2-2.6c1-0.8,1.8-1.2,2.2-1.2c0.6,0,1.1,0.2,1.4,0.7l1.8,2.2
		c-1.1,1.4-2.6,2.7-4.4,3.9c-1.8,1.2-3.9,2.3-6.2,3.1c-2.3,0.9-4.7,1.6-7.3,2.1s-5.2,0.8-7.8,0.8c-4.8,0-9.1-0.8-13-2.5
		c-3.9-1.7-7.3-4.1-10.1-7.2c-2.8-3.2-5-7.1-6.5-11.7c-1.5-4.6-2.3-9.9-2.3-15.8c0-5,0.7-9.6,2.1-13.8c1.4-4.2,3.5-7.9,6.2-10.9
		c2.7-3.1,6-5.4,9.9-7.2C754.7,481.5,759.1,480.6,764,480.6z M764.1,485.6c-3.6,0-6.8,0.6-9.6,1.7c-2.8,1.1-5.3,2.7-7.4,4.8
		c-2.1,2.1-3.8,4.6-5,7.6c-1.3,2.9-2.1,6.2-2.6,9.9h45.9c0-3.7-0.5-7.1-1.5-10c-1-3-2.5-5.5-4.3-7.5c-1.9-2.1-4.1-3.6-6.7-4.7
		C770.2,486.1,767.3,485.6,764.1,485.6z"/>
	<path d="M800.7,551.4v-69.7h3.6c1.2,0,1.9,0.6,2.1,1.8l0.6,10.5c3.2-4,6.9-7.2,11.1-9.7c4.2-2.4,8.9-3.7,14.1-3.7
		c3.8,0,7.2,0.6,10.1,1.8c2.9,1.2,5.3,3,7.2,5.2c1.9,2.3,3.4,5,4.3,8.3c1,3.2,1.5,6.9,1.5,10.9v44.5h-6.7v-44.5
		c0-6.5-1.5-11.7-4.5-15.4c-3-3.7-7.6-5.6-13.7-5.6c-4.6,0-8.8,1.2-12.7,3.5s-7.4,5.6-10.5,9.7v52.2H800.7z"/>
	<path d="M876.1,449.5v101.9h-6.7V449.5H876.1z"/>
	<path d="M901.5,457.7c0,0.8-0.2,1.6-0.5,2.3c-0.4,0.7-0.8,1.4-1.4,1.9c-0.6,0.6-1.2,1-2,1.3c-0.7,0.3-1.5,0.5-2.4,0.5
		s-1.6-0.2-2.4-0.5c-0.7-0.3-1.4-0.8-2-1.3c-0.6-0.6-1-1.2-1.3-1.9c-0.3-0.7-0.5-1.5-0.5-2.3s0.2-1.6,0.5-2.4c0.3-0.8,0.8-1.4,1.3-2
		c0.6-0.6,1.2-1,2-1.3c0.7-0.3,1.5-0.5,2.4-0.5s1.6,0.2,2.4,0.5c0.7,0.3,1.4,0.8,2,1.3c0.6,0.6,1,1.2,1.4,2
		C901.4,456.1,901.5,456.9,901.5,457.7z M898.6,481.7v69.7h-6.7v-69.7H898.6z"/>
	<path d="M936.1,480.5c3,0,5.8,0.4,8.4,1.1c2.6,0.7,4.9,1.8,7,3.2h17.8v2.3c0,1.2-0.7,1.8-2,1.9l-10.6,0.8c1.3,1.8,2.3,3.8,3,6
		c0.7,2.2,1,4.6,1,7.1c0,3.4-0.6,6.4-1.8,9.1c-1.2,2.7-2.9,5.1-5.1,7c-2.2,1.9-4.8,3.4-7.8,4.5c-3,1.1-6.4,1.6-10.1,1.6
		c-4,0-7.7-0.6-10.9-1.8c-2,1.1-3.5,2.5-4.6,4s-1.7,3-1.7,4.5c0,2,0.7,3.5,2.1,4.6c1.4,1.1,3.3,1.9,5.6,2.3c2.3,0.5,4.9,0.8,7.9,0.9
		c3,0.1,6,0.3,9,0.5c3.1,0.2,6.1,0.5,9,0.9c3,0.4,5.6,1.2,7.9,2.2s4.2,2.5,5.6,4.4c1.4,1.9,2.1,4.4,2.1,7.5c0,2.9-0.7,5.7-2.2,8.3
		c-1.4,2.7-3.5,5-6.3,7.1c-2.7,2.1-6,3.7-9.9,4.9c-3.9,1.2-8.2,1.9-13,1.9c-4.9,0-9.2-0.5-12.9-1.5c-3.7-1-6.8-2.4-9.3-4.1
		c-2.5-1.7-4.4-3.7-5.6-5.9c-1.3-2.2-1.9-4.6-1.9-7.1c0-3.7,1.2-6.9,3.6-9.5s5.8-4.7,10-6.2c-2.3-0.8-4.2-1.9-5.6-3.4
		c-1.4-1.5-2.1-3.6-2.1-6.2c0-1,0.2-2,0.6-3.1c0.4-1.1,0.9-2.1,1.7-3.2c0.7-1.1,1.6-2,2.7-3c1-0.9,2.3-1.8,3.7-2.5
		c-3.3-1.9-5.9-4.5-7.7-7.6c-1.8-3.2-2.8-6.9-2.8-11.1c0-3.4,0.6-6.4,1.8-9.1c1.2-2.7,2.9-5.1,5-7s4.8-3.5,7.9-4.5
		C929,481.1,932.4,480.5,936.1,480.5z M962,556.1c0-2.2-0.6-4-1.7-5.3c-1.1-1.3-2.7-2.4-4.6-3.1c-1.9-0.7-4.1-1.3-6.6-1.6
		c-2.5-0.3-5.1-0.5-7.8-0.7s-5.5-0.3-8.2-0.4c-2.8-0.1-5.3-0.4-7.7-0.8c-1.8,0.7-3.4,1.5-4.9,2.4s-2.8,1.9-3.9,3.1
		c-1.1,1.1-1.9,2.4-2.5,3.8c-0.6,1.4-0.9,2.9-0.9,4.5c0,2.1,0.5,4,1.6,5.7c1,1.8,2.6,3.3,4.6,4.5c2,1.3,4.5,2.3,7.5,3
		c2.9,0.7,6.3,1.1,10.2,1.1c3.5,0,6.8-0.4,9.9-1.2c3.1-0.8,5.7-1.9,8-3.4c2.3-1.4,4-3.2,5.3-5.2C961.3,560.6,962,558.5,962,556.1z
		 M936.1,520.6c3,0,5.6-0.4,8-1.3c2.3-0.9,4.3-2.1,5.9-3.6c1.6-1.5,2.8-3.4,3.6-5.5c0.8-2.1,1.2-4.5,1.2-7.1c0-2.6-0.4-5-1.3-7.2
		c-0.8-2.2-2.1-4-3.7-5.6c-1.6-1.5-3.6-2.7-5.9-3.6c-2.3-0.8-4.9-1.3-7.9-1.3c-2.9,0-5.6,0.4-7.9,1.3c-2.3,0.8-4.3,2-5.9,3.6
		c-1.6,1.5-2.8,3.4-3.7,5.6s-1.3,4.6-1.3,7.2c0,2.6,0.4,5,1.3,7.1c0.8,2.1,2.1,4,3.7,5.5c1.6,1.5,3.6,2.7,5.9,3.6
		C930.6,520.1,933.2,520.6,936.1,520.6z"/>
	<path d="M976.2,551.4V449.5h6.7v44.1c3.2-4,6.9-7.1,11-9.5c4.1-2.4,8.8-3.5,13.9-3.5c3.8,0,7.2,0.6,10.1,1.8c2.9,1.2,5.3,3,7.2,5.2
		c1.9,2.3,3.4,5,4.3,8.3c1,3.2,1.5,6.9,1.5,10.9v44.5h-6.7v-44.5c0-6.5-1.5-11.7-4.5-15.4c-3-3.7-7.6-5.6-13.7-5.6
		c-4.6,0-8.8,1.2-12.7,3.5s-7.4,5.6-10.5,9.7v52.2H976.2z"/>
	<path d="M1061.9,552.5c-4.7,0-8.4-1.3-11-3.9c-2.6-2.6-3.9-6.7-3.9-12.1v-47.6h-10c-0.5,0-0.9-0.1-1.3-0.4
		c-0.3-0.3-0.5-0.7-0.5-1.2v-2.6l11.9-0.8l1.7-24.9c0-0.4,0.2-0.8,0.5-1.1s0.7-0.5,1.2-0.5h3.1v26.6h21.9v5h-21.9v47.2
		c0,1.9,0.2,3.6,0.7,4.9c0.5,1.4,1.2,2.5,2,3.4c0.9,0.9,1.9,1.5,3,2c1.2,0.4,2.4,0.6,3.8,0.6c1.7,0,3.1-0.2,4.3-0.7
		c1.2-0.5,2.3-1,3.1-1.6c0.9-0.6,1.6-1.1,2.2-1.6c0.6-0.5,1-0.7,1.3-0.7c0.4,0,0.7,0.2,1.1,0.7l1.8,2.9c-1.8,2-4,3.5-6.8,4.7
		C1067.6,551.9,1064.8,552.5,1061.9,552.5z"/>
</g>
<g>
	<rect x="337.6" y="419" width="728" height="4"/>
</g>
<g>
	<rect x="403.6" y="591" width="603" height="4"/>
</g>
<g>
	<path d="M91.3,752.9c3.6,0,6.3,1.1,8.2,3.4c1.9,2.2,2.8,5.3,2.8,9.1v16.2c2.1,0.4,3.3,0.7,3.7,0.7c0.7,0.1,1,0.5,1,1.2v2.8H96.5
		v-21c0-5.2-2.3-7.9-6.9-7.9c-3.2,0-6.2,1.5-8.9,4.6v19.5l0.8,0.2c1.7,0.3,2.7,0.5,2.9,0.6c0.7,0.1,1,0.5,1,1.2v2.8H70.2v-2.8
		c0-0.7,0.3-1.1,1-1.2l3.7-0.7v-38.4c-2.5-0.4-4-0.7-4.4-0.7c-0.6-0.1-1-0.5-1-1.2v-2.8h11.1v19.4C83.8,754.6,87.3,752.9,91.3,752.9
		z"/>
	<path d="M130.9,753.9c1.7,0.7,3.1,1.6,4.3,2.9c1.2,1.2,2.2,2.8,2.8,4.6s1,3.9,1,6.3c0,0.9-0.1,1.5-0.3,1.8
		c-0.2,0.3-0.6,0.5-1.1,0.5h-21.9c0,2.1,0.3,3.9,0.8,5.4c0.5,1.5,1.2,2.8,2.1,3.9c0.9,1,2,1.8,3.2,2.3c1.3,0.5,2.7,0.8,4.2,0.8
		c1.5,0,2.7-0.2,3.8-0.5s2-0.7,2.7-1.1c0.8-0.4,1.4-0.8,1.9-1.1c0.5-0.3,0.9-0.5,1.3-0.5c0.5,0,0.8,0.2,1.1,0.6l1.6,2.1
		c-0.7,0.9-1.6,1.6-2.6,2.3c-1,0.6-2.1,1.2-3.2,1.6c-1.1,0.4-2.3,0.7-3.5,0.9c-1.2,0.2-2.4,0.3-3.6,0.3c-2.3,0-4.4-0.4-6.3-1.2
		c-1.9-0.8-3.6-1.9-5-3.4s-2.5-3.3-3.3-5.5s-1.2-4.7-1.2-7.5c0-2.3,0.4-4.4,1.1-6.4s1.7-3.7,3-5.2c1.3-1.5,2.9-2.6,4.8-3.4
		c1.9-0.8,4.1-1.3,6.4-1.3C127.4,752.9,129.2,753.2,130.9,753.9z M118.9,759.6c-1.6,1.6-2.6,3.9-3,6.7h17.9c0-1.3-0.2-2.6-0.6-3.7
		c-0.4-1.1-0.9-2.1-1.6-2.9c-0.7-0.8-1.6-1.4-2.6-1.9c-1-0.4-2.2-0.7-3.5-0.7C122.7,757.2,120.5,758,118.9,759.6z"/>
	<path d="M157.9,783.6v2.8h-15.2v-2.8c0-0.7,0.3-1.1,1-1.2l3.7-0.7v-38.4c-2.1-0.4-3.3-0.7-3.7-0.7c-0.7-0.1-1-0.5-1-1.2v-2.8h10.5
		v43.1c2.1,0.4,3.3,0.7,3.7,0.7C157.6,782.5,157.9,782.9,157.9,783.6z"/>
	<path d="M181.7,752.8c3.9,0,6.9,1.4,9.1,4.3c2.3,3,3.4,7.2,3.4,12.5c0,5-1.3,9-3.8,12.2c-2.6,3.3-5.9,4.9-9.9,4.9s-7.2-1.3-9.5-3.9
		v9.8c0.1,0,0.7,0.1,1.8,0.4c1.1,0.2,1.8,0.3,1.9,0.4c0.6,0.1,1,0.5,1,1.2v2.8h-15.1v-2.8c0-0.7,0.3-1.1,1-1.2l3.7-0.7v-34.6
		c-2.1-0.4-3.3-0.7-3.7-0.7c-0.7-0.1-1-0.5-1-1.2v-2.8h4.7h3.4c0.8,0,1.3,0.4,1.6,1.2l0.5,3.9C173.7,754.7,177.4,752.8,181.7,752.8z
		 M178.5,782.3c3.1,0,5.5-1.1,7.2-3.3c1.6-2.2,2.5-5.3,2.5-9.4c0-8.1-2.8-12.2-8.4-12.2c-3.4,0-6.4,1.7-8.9,5v15.9
		C172.8,781,175.4,782.3,178.5,782.3z"/>
	<path d="M212.9,783.5v2.8h-15.2v-2.8c0-0.6,0.4-1.1,1-1.2c0.6-0.1,3.7-0.7,3.7-0.7v-23.4c0,0-3.1-0.6-3.7-0.7c-0.6-0.1-1-0.6-1-1.2
		v-2.8h10.5v28.2c0,0,3.1,0.6,3.7,0.7S212.9,783,212.9,783.5z M201.6,744.7c-0.2-0.5-0.3-1-0.3-1.6c0-0.6,0.1-1.1,0.3-1.6
		c0.2-0.5,0.5-1,0.9-1.3c0.4-0.4,0.8-0.7,1.3-0.9s1-0.3,1.6-0.3s1.1,0.1,1.6,0.3s0.9,0.5,1.3,0.9c0.4,0.4,0.7,0.8,0.9,1.3
		c0.2,0.5,0.3,1,0.3,1.6c0,0.6-0.1,1.1-0.3,1.6c-0.2,0.5-0.5,0.9-0.9,1.3c-0.4,0.4-0.8,0.7-1.3,0.9c-0.5,0.2-1,0.3-1.6,0.3
		s-1.1-0.1-1.6-0.3c-0.5-0.2-0.9-0.5-1.3-0.9C202.1,745.6,201.8,745.2,201.6,744.7z"/>
	<path d="M237.7,752.9c3.6,0,6.3,1.1,8.2,3.4c1.9,2.2,2.8,5.2,2.8,9v16.2c2.1,0.4,3.3,0.7,3.7,0.7c0.7,0.1,1,0.5,1,1.2v2.8H243v-21
		c0-5.2-2.3-7.9-6.9-7.9c-3.2,0-6.2,1.5-8.9,4.6v19.5c0.2,0,1.4,0.3,3.7,0.7c0.7,0.1,1,0.5,1,1.2v2.8h-15.2v-2.8
		c0-0.7,0.3-1.1,1-1.2l3.7-0.7v-23.4c-2.1-0.4-3.3-0.7-3.7-0.7c-0.6-0.1-1-0.5-1-1.2v-2.8h4.7h3.4c0.8,0,1.3,0.4,1.6,1.2l0.5,3.6
		C230,754.7,233.7,752.9,237.7,752.9z"/>
	<path d="M274.2,753.3c1.2,0.3,2.4,0.8,3.4,1.4h8.9v2.1c0,0.7-0.5,1.2-1.4,1.4l-3.7,0.5c0.7,1.4,1.1,3,1.1,4.7
		c0,1.6-0.3,3.1-0.9,4.4c-0.6,1.3-1.5,2.4-2.6,3.4c-1.1,0.9-2.4,1.6-3.9,2.1c-1.5,0.5-3.2,0.7-5,0.7c-1.5,0-3-0.2-4.4-0.6
		c-0.7,0.4-1.2,0.9-1.6,1.4s-0.5,1-0.5,1.5c0,0.8,0.3,1.4,0.9,1.8c0.6,0.4,1.5,0.7,2.5,0.9c1,0.2,2.2,0.3,3.5,0.3
		c1.3,0,2.7,0.1,4,0.2s2.7,0.3,4,0.5c1.3,0.2,2.5,0.6,3.5,1.2c1,0.5,1.9,1.3,2.5,2.2c0.6,1,0.9,2.2,0.9,3.7c0,1.4-0.4,2.8-1.1,4.1
		c-0.7,1.3-1.7,2.5-3,3.5c-1.3,1-2.9,1.9-4.8,2.5c-1.9,0.6-4.1,0.9-6.5,0.9c-2.4,0-4.5-0.2-6.3-0.7c-1.8-0.5-3.3-1.1-4.5-1.9
		s-2.1-1.7-2.7-2.8s-0.9-2.2-0.9-3.3c0-1.6,0.5-3,1.5-4.1s2.4-2,4.2-2.7c-0.9-0.4-1.7-1-2.2-1.7c-0.6-0.7-0.8-1.7-0.8-2.9
		c0-0.5,0.1-1,0.3-1.5c0.2-0.5,0.4-1,0.8-1.5c0.4-0.5,0.8-1,1.3-1.4c0.5-0.5,1.1-0.9,1.8-1.2c-1.6-0.9-2.9-2.1-3.8-3.6
		s-1.4-3.3-1.4-5.3c0-1.6,0.3-3.1,0.9-4.4c0.6-1.3,1.5-2.4,2.6-3.3c1.1-0.9,2.4-1.6,3.9-2.1c1.5-0.5,3.2-0.7,5-0.7
		C271.6,752.9,272.9,753,274.2,753.3z M279.8,786.2c-0.5-0.5-1.1-0.9-1.9-1.2c-0.8-0.3-1.7-0.5-2.7-0.6c-1-0.1-2.1-0.2-3.2-0.3
		c-1.1-0.1-2.3-0.1-3.4-0.2s-2.3-0.2-3.3-0.4c-1.2,0.6-2.2,1.3-3,2.1c-0.8,0.8-1.2,1.9-1.2,3c0,0.7,0.2,1.4,0.6,2.1
		c0.4,0.6,1,1.2,1.7,1.7s1.8,0.8,2.9,1.1s2.6,0.4,4.2,0.4c1.6,0,3-0.1,4.2-0.4c1.2-0.3,2.3-0.7,3.1-1.2c0.9-0.5,1.5-1.1,2-1.9
		s0.7-1.5,0.7-2.4C280.4,787.3,280.2,786.7,279.8,786.2z M273.3,769.8c0.9-0.3,1.7-0.8,2.3-1.4c0.6-0.6,1.1-1.3,1.4-2.1
		c0.3-0.8,0.5-1.7,0.5-2.7c0-2-0.6-3.6-1.8-4.8c-1.2-1.2-3-1.8-5.3-1.8c-2.3,0-4.1,0.6-5.3,1.8c-1.2,1.2-1.8,2.8-1.8,4.8
		c0,1,0.2,1.9,0.5,2.7s0.8,1.5,1.4,2.1c0.6,0.6,1.4,1,2.2,1.4c0.9,0.3,1.9,0.5,3.1,0.5C271.3,770.3,272.4,770.1,273.3,769.8z"/>
	<path d="M324.3,752.8c3.9,0,6.9,1.4,9.1,4.3c2.3,3,3.4,7.2,3.4,12.5c0,5-1.3,9-3.8,12.2c-2.6,3.3-5.9,4.9-9.9,4.9s-7.2-1.3-9.5-3.9
		v9.8c0.1,0,0.7,0.1,1.8,0.4c1.1,0.2,1.8,0.3,1.9,0.4c0.6,0.1,1,0.5,1,1.2v2.8H303v-2.8c0-0.7,0.3-1.1,1-1.2l3.7-0.7v-34.6
		c-2.1-0.4-3.3-0.7-3.7-0.7c-0.7-0.1-1-0.5-1-1.2v-2.8h4.7h3.4c0.8,0,1.3,0.4,1.6,1.2l0.5,3.9C316.3,754.7,320,752.8,324.3,752.8z
		 M321.1,782.3c3.1,0,5.5-1.1,7.2-3.3c1.6-2.2,2.5-5.3,2.5-9.4c0-8.1-2.8-12.2-8.4-12.2c-3.4,0-6.4,1.7-8.9,5v15.9
		C315.4,781,317.9,782.3,321.1,782.3z"/>
	<path d="M360.6,752.8c1.7,0,3.2,0.4,4.5,1.2l-0.7,4.3c-0.2,0.5-0.4,0.8-0.8,0.8c-0.4,0-0.9-0.1-1.6-0.3c-0.6-0.2-1.5-0.3-2.6-0.3
		c-3.8,0-6.6,2.3-8.5,6.9v16.2c0.5,0.1,1.8,0.4,3.7,0.7c0.7,0.1,1,0.5,1,1.2v2.8h-15.1v-2.8c0-0.7,0.3-1.1,1-1.2l3.7-0.7v-23.4
		c-2.1-0.4-3.3-0.7-3.7-0.7c-0.6-0.1-1-0.5-1-1.2v-2.8h4.7h3.3c0.6,0,1.1,0.1,1.3,0.4s0.4,0.7,0.5,1.2l0.4,5.1
		C353,755.3,356.3,752.8,360.6,752.8z"/>
	<path d="M388.9,754.1c1.9,0.8,3.6,1.9,4.9,3.4c1.4,1.5,2.4,3.3,3.1,5.3c0.7,2.1,1.1,4.4,1.1,7c0,2.6-0.4,4.9-1.1,7
		s-1.8,3.9-3.1,5.3s-3,2.6-4.9,3.4c-1.9,0.8-4.1,1.2-6.5,1.2c-2.4,0-4.6-0.4-6.5-1.2c-1.9-0.8-3.6-1.9-5-3.4s-2.4-3.2-3.2-5.3
		s-1.1-4.4-1.1-7c0-2.6,0.4-4.9,1.1-7s1.8-3.9,3.2-5.3c1.4-1.5,3-2.6,5-3.4c1.9-0.8,4.1-1.2,6.5-1.2
		C384.8,752.9,386.9,753.3,388.9,754.1z M389.6,779c1.6-2.2,2.4-5.2,2.4-9.1c0-3.9-0.8-7-2.4-9.2c-1.6-2.2-4-3.3-7.3-3.3
		c-1.6,0-3.1,0.3-4.3,0.8c-1.2,0.6-2.2,1.4-3,2.4c-0.8,1.1-1.4,2.4-1.8,3.9c-0.4,1.5-0.6,3.3-0.6,5.2s0.2,3.7,0.6,5.2
		c0.4,1.5,1,2.8,1.8,3.9s1.8,1.9,3,2.4c1.2,0.6,2.6,0.8,4.3,0.8C385.6,782.3,388,781.2,389.6,779z"/>
	<path d="M425.8,756.7v-13.5c-2.2-0.3-3.7-0.6-4.3-0.7c-0.7-0.1-1-0.5-1-1.2v-2.8h11.1v43.1c2.1,0.4,3.3,0.7,3.7,0.7
		c0.7,0.1,1,0.5,1,1.2v2.8h-8.1c-0.8,0-1.3-0.4-1.6-1.2l-0.5-4c-3.1,3.8-6.8,5.7-11.1,5.7c-3.9,0-6.9-1.4-9.1-4.3
		c-2.3-2.9-3.4-7.1-3.4-12.5c0-5,1.3-9.1,3.8-12.2c2.6-3.3,6.1-4.9,10.4-4.9C420.5,752.8,423.5,754.1,425.8,756.7z M425.8,777.1
		v-15.9c-1.9-2.6-4.4-3.9-7.6-3.9c-3.2,0-5.6,1.1-7.2,3.3c-1.6,2.2-2.5,5.3-2.5,9.4c0,6.2,1.6,10,4.8,11.4c1,0.5,2.2,0.7,3.6,0.7
		C420.4,782.1,423.3,780.5,425.8,777.1z"/>
	<path d="M465,777.7v-19.5c-0.4-0.1-1.6-0.3-3.7-0.7c-0.7-0.1-1-0.5-1-1.2v-2.8h4.7h5.8v28.2c2.1,0.4,3.3,0.7,3.7,0.7
		c0.7,0.1,1,0.5,1,1.2v2.8h-8.2c-0.8,0-1.3-0.4-1.6-1.2l-0.5-3.5c-3.2,3.5-6.8,5.3-10.9,5.3c-3.5,0-6.3-1.1-8.2-3.4
		c-1.9-2.2-2.8-5.2-2.8-9v-16.3c-2.1-0.4-3.3-0.7-3.7-0.7c-0.6-0.1-1-0.5-1-1.2v-2.8h10.5v21c0,2.5,0.6,4.4,1.7,5.8s2.9,2,5.2,2
		C459.4,782.3,462.4,780.7,465,777.7z"/>
	<path d="M493.2,786.8c-4.2,0-7.7-1.5-10.3-4.5c-2.8-3.1-4.2-7.2-4.2-12.5c0-5,1.3-9.1,4-12.2c2.8-3.2,6.6-4.8,11.5-4.8
		c2.5,0,5.8,0.8,9.8,2.4v8.5h-2.6c-0.6,0-1-0.3-1.1-0.9c-0.1-0.2-0.2-1.1-0.3-2.4c-0.1-1.4-0.2-2.1-0.2-2.2c-1-0.3-1.8-0.5-2.4-0.6
		c-1.3-0.2-2.5-0.3-3.7-0.3s-2.4,0.3-3.6,0.9s-2.2,1.4-3.1,2.5c-1.7,2.2-2.5,5.2-2.5,9.1c0,3.9,0.9,7,2.6,9.2c1.7,2.1,4,3.2,7,3.2
		c2.7,0,5.1-0.9,7.2-2.7c0.4-0.3,0.8-0.5,1.3-0.5s0.8,0.2,1,0.6l1.6,2.1C502.6,785.1,498.6,786.8,493.2,786.8z"/>
	<path d="M530.5,753.9c1.7,0.7,3.1,1.6,4.3,2.9c1.2,1.2,2.2,2.8,2.8,4.6s1,3.9,1,6.3c0,0.9-0.1,1.5-0.3,1.8
		c-0.2,0.3-0.6,0.5-1.1,0.5h-21.9c0,2.1,0.3,3.9,0.8,5.4c0.5,1.5,1.2,2.8,2.1,3.9c0.9,1,2,1.8,3.2,2.3c1.3,0.5,2.7,0.8,4.2,0.8
		c1.5,0,2.7-0.2,3.8-0.5s2-0.7,2.7-1.1c0.8-0.4,1.4-0.8,1.9-1.1c0.5-0.3,0.9-0.5,1.3-0.5c0.5,0,0.8,0.2,1.1,0.6l1.6,2.1
		c-0.7,0.9-1.6,1.6-2.6,2.3c-1,0.6-2.1,1.2-3.2,1.6c-1.1,0.4-2.3,0.7-3.5,0.9c-1.2,0.2-2.4,0.3-3.6,0.3c-2.3,0-4.4-0.4-6.3-1.2
		c-1.9-0.8-3.6-1.9-5-3.4s-2.5-3.3-3.3-5.5s-1.2-4.7-1.2-7.5c0-2.3,0.4-4.4,1.1-6.4s1.7-3.7,3-5.2c1.3-1.5,2.9-2.6,4.8-3.4
		c1.9-0.8,4.1-1.3,6.4-1.3C527.1,752.9,528.9,753.2,530.5,753.9z M518.6,759.6c-1.6,1.6-2.6,3.9-3,6.7h17.9c0-1.3-0.2-2.6-0.6-3.7
		c-0.4-1.1-0.9-2.1-1.6-2.9c-0.7-0.8-1.6-1.4-2.6-1.9c-1-0.4-2.2-0.7-3.5-0.7C522.4,757.2,520.2,758,518.6,759.6z"/>
	<path d="M562.7,752.8c1.7,0,3.2,0.4,4.5,1.2l-0.7,4.3c-0.2,0.5-0.4,0.8-0.8,0.8c-0.4,0-0.9-0.1-1.6-0.3c-0.6-0.2-1.5-0.3-2.6-0.3
		c-3.8,0-6.6,2.3-8.5,6.9v16.2c0.5,0.1,1.8,0.4,3.7,0.7c0.7,0.1,1,0.5,1,1.2v2.8h-15.1v-2.8c0-0.7,0.3-1.1,1-1.2l3.7-0.7v-23.4
		c-2.1-0.4-3.3-0.7-3.7-0.7c-0.6-0.1-1-0.5-1-1.2v-2.8h4.7h3.3c0.6,0,1.1,0.1,1.3,0.4s0.4,0.7,0.5,1.2l0.4,5.1
		C555.1,755.3,558.4,752.8,562.7,752.8z"/>
	<path d="M592.1,754.6v2.3v6.1h-2.6c-0.6,0-1-0.3-1.1-0.9c0-0.1-0.2-1.5-0.4-4.3c-2-0.5-3.7-0.7-5.1-0.7h-0.1
		c-1.8,0-3.3,0.5-4.5,1.4c-1.1,0.9-1.7,1.9-1.7,3c0,1.1,0.2,1.9,0.7,2.5c0.9,1,2.1,1.8,3.7,2.3c1.6,0.5,3,0.9,4,1.3s2.1,0.8,3.1,1.2
		c1,0.4,1.9,1,2.7,1.6c1.8,1.5,2.7,3.4,2.7,5.8c0,3.1-1.1,5.7-3.2,7.5c-2.2,2-5.1,3-8.7,3s-7.1-0.6-10.6-1.8v-8.6h2.3
		c0.5,0,0.9,0.3,1,0.8c0,0.2,0.2,1.6,0.4,4.2c1.9,0.9,4.1,1.3,6.7,1.3c2.1,0,3.8-0.5,5.1-1.6c1.1-1,1.7-2.1,1.7-3.3
		c0-1.2-0.2-2.2-0.7-2.7c-0.5-0.6-1.1-1.1-1.9-1.5c-0.8-0.4-1.7-0.8-2.8-1.1c-2.9-0.9-4.9-1.6-6.1-2.1c-1.2-0.5-2.2-1.1-3-1.8
		c-1.8-1.5-2.7-3.5-2.7-6.1c0-2.7,1-4.9,3.1-6.7c2.2-1.9,5.3-2.9,9.3-2.9C585.8,752.9,588.6,753.5,592.1,754.6z"/>
	<path d="M617.2,784.7c-1.4-1.5-2.1-3.5-2.1-6.3v-20.2h-4c-0.3,0-0.6-0.1-0.9-0.3s-0.4-0.5-0.4-1v-2.3l5.4-0.7l1.3-10.2
		c0-0.3,0.2-0.6,0.4-0.8c0.2-0.2,0.5-0.3,0.9-0.3h2.9v11.3h9.4v4.2h-9.4V778c0,1.4,0.3,2.4,1,3.1s1.5,1,2.6,1c0.6,0,1.1-0.1,1.6-0.2
		c0.4-0.2,0.8-0.3,1.2-0.5c0.3-0.2,0.6-0.4,0.8-0.5c0.2-0.2,0.4-0.2,0.6-0.2c0.3,0,0.6,0.2,0.8,0.6l1.7,2.8c-1,0.9-2.2,1.7-3.6,2.2
		c-1.4,0.5-2.9,0.8-4.4,0.8C620.6,786.9,618.6,786.1,617.2,784.7z"/>
	<path d="M656.3,754.1c1.9,0.8,3.6,1.9,4.9,3.4c1.4,1.5,2.4,3.3,3.1,5.3c0.7,2.1,1.1,4.4,1.1,7c0,2.6-0.4,4.9-1.1,7
		s-1.8,3.9-3.1,5.3s-3,2.6-4.9,3.4c-1.9,0.8-4.1,1.2-6.5,1.2c-2.4,0-4.6-0.4-6.5-1.2c-1.9-0.8-3.6-1.9-5-3.4s-2.4-3.2-3.2-5.3
		s-1.1-4.4-1.1-7c0-2.6,0.4-4.9,1.1-7s1.8-3.9,3.2-5.3c1.4-1.5,3-2.6,5-3.4c1.9-0.8,4.1-1.2,6.5-1.2
		C652.2,752.9,654.4,753.3,656.3,754.1z M657.1,779c1.6-2.2,2.4-5.2,2.4-9.1c0-3.9-0.8-7-2.4-9.2c-1.6-2.2-4-3.3-7.3-3.3
		c-1.6,0-3.1,0.3-4.3,0.8c-1.2,0.6-2.2,1.4-3,2.4c-0.8,1.1-1.4,2.4-1.8,3.9c-0.4,1.5-0.6,3.3-0.6,5.2s0.2,3.7,0.6,5.2
		c0.4,1.5,1,2.8,1.8,3.9s1.8,1.9,3,2.4c1.2,0.6,2.6,0.8,4.3,0.8C653.1,782.3,655.5,781.2,657.1,779z"/>
	<path d="M703.2,752.8c3.9,0,6.9,1.4,9.1,4.3c2.3,3,3.4,7.2,3.4,12.5c0,5-1.3,9-3.8,12.2c-2.6,3.3-5.9,4.9-9.9,4.9s-7.2-1.3-9.5-3.9
		v9.8c0.1,0,0.7,0.1,1.8,0.4c1.1,0.2,1.8,0.3,1.9,0.4c0.6,0.1,1,0.5,1,1.2v2.8h-15.1v-2.8c0-0.7,0.3-1.1,1-1.2l3.7-0.7v-34.6
		c-2.1-0.4-3.3-0.7-3.7-0.7c-0.7-0.1-1-0.5-1-1.2v-2.8h4.7h3.4c0.8,0,1.3,0.4,1.6,1.2l0.5,3.9C695.2,754.7,698.9,752.8,703.2,752.8z
		 M700,782.3c3.1,0,5.5-1.1,7.2-3.3c1.6-2.2,2.5-5.3,2.5-9.4c0-8.1-2.8-12.2-8.4-12.2c-3.4,0-6.4,1.7-8.9,5v15.9
		C694.3,781,696.8,782.3,700,782.3z"/>
	<path d="M734.3,783.5v2.8h-15.2v-2.8c0-0.6,0.4-1.1,1-1.2c0.6-0.1,3.7-0.7,3.7-0.7v-23.4c0,0-3.1-0.6-3.7-0.7c-0.6-0.1-1-0.6-1-1.2
		v-2.8h10.5v28.2c0,0,3.1,0.6,3.7,0.7S734.3,783,734.3,783.5z M723,744.7c-0.2-0.5-0.3-1-0.3-1.6c0-0.6,0.1-1.1,0.3-1.6
		c0.2-0.5,0.5-1,0.9-1.3c0.4-0.4,0.8-0.7,1.3-0.9s1-0.3,1.6-0.3s1.1,0.1,1.6,0.3s0.9,0.5,1.3,0.9c0.4,0.4,0.7,0.8,0.9,1.3
		c0.2,0.5,0.3,1,0.3,1.6c0,0.6-0.1,1.1-0.3,1.6c-0.2,0.5-0.5,0.9-0.9,1.3c-0.4,0.4-0.8,0.7-1.3,0.9c-0.5,0.2-1,0.3-1.6,0.3
		s-1.1-0.1-1.6-0.3c-0.5-0.2-0.9-0.5-1.3-0.9C723.5,745.6,723.2,745.2,723,744.7z"/>
	<path d="M751.9,786.8c-4.2,0-7.7-1.5-10.3-4.5c-2.8-3.1-4.2-7.2-4.2-12.5c0-5,1.3-9.1,4-12.2c2.8-3.2,6.6-4.8,11.5-4.8
		c2.5,0,5.8,0.8,9.8,2.4v8.5H760c-0.6,0-1-0.3-1.1-0.9c-0.1-0.2-0.2-1.1-0.3-2.4c-0.1-1.4-0.2-2.1-0.2-2.2c-1-0.3-1.8-0.5-2.4-0.6
		c-1.3-0.2-2.5-0.3-3.7-0.3s-2.4,0.3-3.6,0.9s-2.2,1.4-3.1,2.5c-1.7,2.2-2.5,5.2-2.5,9.1c0,3.9,0.9,7,2.6,9.2c1.7,2.1,4,3.2,7,3.2
		c2.7,0,5.1-0.9,7.2-2.7c0.4-0.3,0.8-0.5,1.3-0.5s0.8,0.2,1,0.6l1.6,2.1C761.3,785.1,757.3,786.8,751.9,786.8z"/>
	<path d="M801.2,783.6v2.8h-6.1c-0.8,0-1.6-0.4-2.2-1.1l-10.8-13.5c-0.3-0.5-0.6-0.8-1-0.9s-0.8-0.2-1.5-0.2H778v11
		c0.2,0,1.5,0.3,3.7,0.7c0.7,0.1,1,0.5,1,1.2v2.8h-15.2v-2.8c0-0.7,0.3-1.1,1-1.2l3.7-0.7v-38.4c-2.1-0.4-3.3-0.7-3.7-0.7
		c-0.7-0.1-1-0.5-1-1.2v-2.8h4.7h5.8v28.2h1.5c0.8,0,1.5-0.3,2-0.9l7.4-8c-0.2,0-0.5-0.1-0.7-0.1c-0.5-0.1-0.8-0.2-1.1-0.2
		c-0.7-0.1-1-0.5-1-1.2v-2.8h8.1h5.3h0.4v2.8c0,0.7-0.3,1.1-0.8,1.2c-0.5,0.1-1.9,0.4-4,0.8l-7.7,8.2c-0.7,0.8-1.3,1.4-1.9,1.7
		c0.7,0.5,1.4,1.2,1.9,2l9.1,11.5l1.7,0.3c1.1,0.2,1.8,0.4,2,0.4C800.9,782.5,801.2,782.9,801.2,783.6z"/>
	<path d="M825.1,784.7c-1.4-1.5-2.1-3.5-2.1-6.3v-20.2h-4c-0.3,0-0.6-0.1-0.9-0.3s-0.4-0.5-0.4-1v-2.3l5.4-0.7l1.3-10.2
		c0-0.3,0.2-0.6,0.4-0.8c0.2-0.2,0.5-0.3,0.9-0.3h2.9v11.3h9.4v4.2h-9.4V778c0,1.4,0.3,2.4,1,3.1s1.5,1,2.6,1c0.6,0,1.1-0.1,1.6-0.2
		c0.4-0.2,0.8-0.3,1.2-0.5c0.3-0.2,0.6-0.4,0.8-0.5c0.2-0.2,0.4-0.2,0.6-0.2c0.3,0,0.6,0.2,0.8,0.6l1.7,2.8c-1,0.9-2.2,1.7-3.6,2.2
		c-1.4,0.5-2.9,0.8-4.4,0.8C828.5,786.9,826.5,786.1,825.1,784.7z"/>
	<path d="M863.9,752.9c3.6,0,6.3,1.1,8.2,3.4c1.9,2.2,2.8,5.3,2.8,9.1v16.2c2.1,0.4,3.3,0.7,3.7,0.7c0.7,0.1,1,0.5,1,1.2v2.8h-10.5
		v-21c0-5.2-2.3-7.9-6.9-7.9c-3.2,0-6.2,1.5-8.9,4.6v19.5l0.8,0.2c1.7,0.3,2.7,0.5,2.9,0.6c0.7,0.1,1,0.5,1,1.2v2.8h-15.1v-2.8
		c0-0.7,0.3-1.1,1-1.2l3.7-0.7v-38.4c-2.5-0.4-4-0.7-4.4-0.7c-0.6-0.1-1-0.5-1-1.2v-2.8h11.1v19.4
		C856.4,754.6,859.9,752.9,863.9,752.9z"/>
	<path d="M903.4,753.9c1.7,0.7,3.1,1.6,4.3,2.9c1.2,1.2,2.2,2.8,2.8,4.6s1,3.9,1,6.3c0,0.9-0.1,1.5-0.3,1.8
		c-0.2,0.3-0.6,0.5-1.1,0.5h-21.9c0,2.1,0.3,3.9,0.8,5.4c0.5,1.5,1.2,2.8,2.1,3.9c0.9,1,2,1.8,3.2,2.3c1.3,0.5,2.7,0.8,4.2,0.8
		c1.5,0,2.7-0.2,3.8-0.5s2-0.7,2.7-1.1c0.8-0.4,1.4-0.8,1.9-1.1c0.5-0.3,0.9-0.5,1.3-0.5c0.5,0,0.8,0.2,1.1,0.6l1.6,2.1
		c-0.7,0.9-1.6,1.6-2.6,2.3c-1,0.6-2.1,1.2-3.2,1.6c-1.1,0.4-2.3,0.7-3.5,0.9c-1.2,0.2-2.4,0.3-3.6,0.3c-2.3,0-4.4-0.4-6.3-1.2
		c-1.9-0.8-3.6-1.9-5-3.4s-2.5-3.3-3.3-5.5s-1.2-4.7-1.2-7.5c0-2.3,0.4-4.4,1.1-6.4s1.7-3.7,3-5.2c1.3-1.5,2.9-2.6,4.8-3.4
		c1.9-0.8,4.1-1.3,6.4-1.3C900,752.9,901.8,753.2,903.4,753.9z M891.5,759.6c-1.6,1.6-2.6,3.9-3,6.7h17.9c0-1.3-0.2-2.6-0.6-3.7
		c-0.4-1.1-0.9-2.1-1.6-2.9c-0.7-0.8-1.6-1.4-2.6-1.9c-1-0.4-2.2-0.7-3.5-0.7C895.3,757.2,893.1,758,891.5,759.6z"/>
	<path d="M949.6,752.8c1.7,0,3.2,0.4,4.5,1.2l-0.7,4.3c-0.2,0.5-0.4,0.8-0.8,0.8c-0.4,0-0.9-0.1-1.6-0.3c-0.6-0.2-1.5-0.3-2.6-0.3
		c-3.8,0-6.6,2.3-8.5,6.9v16.2c0.5,0.1,1.8,0.4,3.7,0.7c0.7,0.1,1,0.5,1,1.2v2.8h-15.1v-2.8c0-0.7,0.3-1.1,1-1.2l3.7-0.7v-23.4
		c-2.1-0.4-3.3-0.7-3.7-0.7c-0.6-0.1-1-0.5-1-1.2v-2.8h4.7h3.3c0.6,0,1.1,0.1,1.3,0.4s0.4,0.7,0.5,1.2l0.4,5.1
		C942,755.3,945.3,752.8,949.6,752.8z"/>
	<path d="M972.5,783.5v2.8h-15.2v-2.8c0-0.6,0.4-1.1,1-1.2c0.6-0.1,3.7-0.7,3.7-0.7v-23.4c0,0-3.1-0.6-3.7-0.7c-0.6-0.1-1-0.6-1-1.2
		v-2.8h10.5v28.2c0,0,3.1,0.6,3.7,0.7S972.5,783,972.5,783.5z M961.2,744.7c-0.2-0.5-0.3-1-0.3-1.6c0-0.6,0.1-1.1,0.3-1.6
		c0.2-0.5,0.5-1,0.9-1.3c0.4-0.4,0.8-0.7,1.3-0.9s1-0.3,1.6-0.3s1.1,0.1,1.6,0.3s0.9,0.5,1.3,0.9c0.4,0.4,0.7,0.8,0.9,1.3
		c0.2,0.5,0.3,1,0.3,1.6c0,0.6-0.1,1.1-0.3,1.6c-0.2,0.5-0.5,0.9-0.9,1.3c-0.4,0.4-0.8,0.7-1.3,0.9c-0.5,0.2-1,0.3-1.6,0.3
		s-1.1-0.1-1.6-0.3c-0.5-0.2-0.9-0.5-1.3-0.9C961.7,745.6,961.4,745.2,961.2,744.7z"/>
	<path d="M993.1,753.3c1.2,0.3,2.4,0.8,3.4,1.4h8.9v2.1c0,0.7-0.5,1.2-1.4,1.4l-3.7,0.5c0.7,1.4,1.1,3,1.1,4.7
		c0,1.6-0.3,3.1-0.9,4.4c-0.6,1.3-1.5,2.4-2.6,3.4c-1.1,0.9-2.4,1.6-3.9,2.1c-1.5,0.5-3.2,0.7-5,0.7c-1.5,0-3-0.2-4.4-0.6
		c-0.7,0.4-1.2,0.9-1.6,1.4s-0.5,1-0.5,1.5c0,0.8,0.3,1.4,0.9,1.8c0.6,0.4,1.5,0.7,2.5,0.9c1,0.2,2.2,0.3,3.5,0.3
		c1.3,0,2.7,0.1,4,0.2s2.7,0.3,4,0.5c1.3,0.2,2.5,0.6,3.5,1.2c1,0.5,1.9,1.3,2.5,2.2c0.6,1,0.9,2.2,0.9,3.7c0,1.4-0.4,2.8-1.1,4.1
		c-0.7,1.3-1.7,2.5-3,3.5c-1.3,1-2.9,1.9-4.8,2.5c-1.9,0.6-4.1,0.9-6.5,0.9c-2.4,0-4.5-0.2-6.3-0.7c-1.8-0.5-3.3-1.1-4.5-1.9
		s-2.1-1.7-2.7-2.8s-0.9-2.2-0.9-3.3c0-1.6,0.5-3,1.5-4.1s2.4-2,4.2-2.7c-0.9-0.4-1.7-1-2.2-1.7c-0.6-0.7-0.8-1.7-0.8-2.9
		c0-0.5,0.1-1,0.3-1.5c0.2-0.5,0.4-1,0.8-1.5c0.4-0.5,0.8-1,1.3-1.4c0.5-0.5,1.1-0.9,1.8-1.2c-1.6-0.9-2.9-2.1-3.8-3.6
		s-1.4-3.3-1.4-5.3c0-1.6,0.3-3.1,0.9-4.4c0.6-1.3,1.5-2.4,2.6-3.3c1.1-0.9,2.4-1.6,3.9-2.1c1.5-0.5,3.2-0.7,5-0.7
		C990.5,752.9,991.9,753,993.1,753.3z M998.7,786.2c-0.5-0.5-1.1-0.9-1.9-1.2c-0.8-0.3-1.7-0.5-2.7-0.6c-1-0.1-2.1-0.2-3.2-0.3
		c-1.1-0.1-2.3-0.1-3.4-0.2s-2.3-0.2-3.3-0.4c-1.2,0.6-2.2,1.3-3,2.1c-0.8,0.8-1.2,1.9-1.2,3c0,0.7,0.2,1.4,0.6,2.1
		c0.4,0.6,1,1.2,1.7,1.7s1.8,0.8,2.9,1.1s2.6,0.4,4.2,0.4c1.6,0,3-0.1,4.2-0.4c1.2-0.3,2.3-0.7,3.1-1.2c0.9-0.5,1.5-1.1,2-1.9
		s0.7-1.5,0.7-2.4C999.4,787.3,999.2,786.7,998.7,786.2z M992.2,769.8c0.9-0.3,1.7-0.8,2.3-1.4c0.6-0.6,1.1-1.3,1.4-2.1
		c0.3-0.8,0.5-1.7,0.5-2.7c0-2-0.6-3.6-1.8-4.8c-1.2-1.2-3-1.8-5.3-1.8c-2.3,0-4.1,0.6-5.3,1.8c-1.2,1.2-1.8,2.8-1.8,4.8
		c0,1,0.2,1.9,0.5,2.7s0.8,1.5,1.4,2.1c0.6,0.6,1.4,1,2.2,1.4c0.9,0.3,1.9,0.5,3.1,0.5C990.3,770.3,991.3,770.1,992.2,769.8z"/>
	<path d="M1030.4,752.9c3.6,0,6.3,1.1,8.2,3.4c1.9,2.2,2.8,5.3,2.8,9.1v16.2c2.1,0.4,3.3,0.7,3.7,0.7c0.7,0.1,1,0.5,1,1.2v2.8h-10.5
		v-21c0-5.2-2.3-7.9-6.9-7.9c-3.2,0-6.2,1.5-8.9,4.6v19.5l0.8,0.2c1.7,0.3,2.7,0.5,2.9,0.6c0.7,0.1,1,0.5,1,1.2v2.8h-15.1v-2.8
		c0-0.7,0.3-1.1,1-1.2l3.7-0.7v-38.4c-2.5-0.4-4-0.7-4.4-0.7c-0.6-0.1-1-0.5-1-1.2v-2.8h11.1v19.4
		C1022.9,754.6,1026.4,752.9,1030.4,752.9z"/>
	<path d="M1055.8,784.7c-1.4-1.5-2.1-3.5-2.1-6.3v-20.2h-4c-0.3,0-0.6-0.1-0.9-0.3s-0.4-0.5-0.4-1v-2.3l5.4-0.7l1.3-10.2
		c0-0.3,0.2-0.6,0.4-0.8c0.2-0.2,0.5-0.3,0.9-0.3h2.9v11.3h9.4v4.2h-9.4V778c0,1.4,0.3,2.4,1,3.1s1.5,1,2.6,1c0.6,0,1.1-0.1,1.6-0.2
		c0.4-0.2,0.8-0.3,1.2-0.5c0.3-0.2,0.6-0.4,0.8-0.5c0.2-0.2,0.4-0.2,0.6-0.2c0.3,0,0.6,0.2,0.8,0.6l1.7,2.8c-1,0.9-2.2,1.7-3.6,2.2
		c-1.4,0.5-2.9,0.8-4.4,0.8C1059.2,786.9,1057.2,786.1,1055.8,784.7z"/>
	<path d="M1107.5,752.8c3.9,0,6.9,1.4,9.1,4.3c2.3,3,3.4,7.2,3.4,12.5c0,5-1.3,9-3.8,12.2c-2.6,3.3-5.9,4.9-9.9,4.9
		s-7.2-1.3-9.5-3.9v9.8c0.1,0,0.7,0.1,1.8,0.4c1.1,0.2,1.8,0.3,1.9,0.4c0.6,0.1,1,0.5,1,1.2v2.8h-15.1v-2.8c0-0.7,0.3-1.1,1-1.2
		l3.7-0.7v-34.6c-2.1-0.4-3.3-0.7-3.7-0.7c-0.7-0.1-1-0.5-1-1.2v-2.8h4.7h3.4c0.8,0,1.3,0.4,1.6,1.2l0.5,3.9
		C1099.5,754.7,1103.2,752.8,1107.5,752.8z M1104.3,782.3c3.1,0,5.5-1.1,7.2-3.3c1.6-2.2,2.5-5.3,2.5-9.4c0-8.1-2.8-12.2-8.4-12.2
		c-3.4,0-6.4,1.7-8.9,5v15.9C1098.6,781,1101.2,782.3,1104.3,782.3z"/>
	<path d="M1143.8,752.8c1.7,0,3.2,0.4,4.5,1.2l-0.7,4.3c-0.2,0.5-0.4,0.8-0.8,0.8c-0.4,0-0.9-0.1-1.6-0.3c-0.6-0.2-1.5-0.3-2.6-0.3
		c-3.8,0-6.6,2.3-8.5,6.9v16.2c0.5,0.1,1.8,0.4,3.7,0.7c0.7,0.1,1,0.5,1,1.2v2.8h-15.1v-2.8c0-0.7,0.3-1.1,1-1.2l3.7-0.7v-23.4
		c-2.1-0.4-3.3-0.7-3.7-0.7c-0.6-0.1-1-0.5-1-1.2v-2.8h4.7h3.3c0.6,0,1.1,0.1,1.3,0.4s0.4,0.7,0.5,1.2l0.4,5.1
		C1136.2,755.3,1139.5,752.8,1143.8,752.8z"/>
	<path d="M1172.1,754.1c1.9,0.8,3.6,1.9,4.9,3.4c1.4,1.5,2.4,3.3,3.1,5.3c0.7,2.1,1.1,4.4,1.1,7c0,2.6-0.4,4.9-1.1,7
		s-1.8,3.9-3.1,5.3s-3,2.6-4.9,3.4c-1.9,0.8-4.1,1.2-6.5,1.2c-2.4,0-4.6-0.4-6.5-1.2c-1.9-0.8-3.6-1.9-5-3.4s-2.4-3.2-3.2-5.3
		s-1.1-4.4-1.1-7c0-2.6,0.4-4.9,1.1-7s1.8-3.9,3.2-5.3c1.4-1.5,3-2.6,5-3.4c1.9-0.8,4.1-1.2,6.5-1.2
		C1168,752.9,1170.1,753.3,1172.1,754.1z M1172.8,779c1.6-2.2,2.4-5.2,2.4-9.1c0-3.9-0.8-7-2.4-9.2c-1.6-2.2-4-3.3-7.3-3.3
		c-1.6,0-3.1,0.3-4.3,0.8c-1.2,0.6-2.2,1.4-3,2.4c-0.8,1.1-1.4,2.4-1.8,3.9c-0.4,1.5-0.6,3.3-0.6,5.2s0.2,3.7,0.6,5.2
		c0.4,1.5,1,2.8,1.8,3.9s1.8,1.9,3,2.4c1.2,0.6,2.6,0.8,4.3,0.8C1168.8,782.3,1171.2,781.2,1172.8,779z"/>
	<path d="M1187.1,798.2c-1.5,0-2.8-0.2-4-0.7l0.3-3.1c0.1-0.4,0.4-0.7,1-0.7h1.3c1.7,0,2.9-0.4,3.6-1.2c0.7-0.8,1.1-2.1,1.1-3.8
		v-30.6c-0.7-0.1-1.9-0.4-3.7-0.7c-0.7-0.1-1-0.5-1-1.2v-2.8h4.7h5.8v35.4c0,4.4-1.7,7.3-5,8.7
		C1189.9,797.9,1188.5,798.2,1187.1,798.2z M1197.4,743.1c0,0.6-0.1,1.1-0.3,1.6s-0.5,0.9-0.9,1.3c-0.4,0.4-0.8,0.7-1.3,0.9
		c-0.5,0.2-1,0.3-1.6,0.3c-0.6,0-1.1-0.1-1.6-0.3c-0.5-0.2-0.9-0.5-1.3-0.9c-0.4-0.4-0.7-0.8-0.9-1.3c-0.2-0.5-0.3-1-0.3-1.6
		c0-0.6,0.1-1.1,0.3-1.6c0.2-0.5,0.5-1,0.9-1.3c0.4-0.4,0.8-0.7,1.3-0.9c0.5-0.2,1-0.3,1.6-0.3s1.1,0.1,1.6,0.3
		c0.5,0.2,0.9,0.5,1.3,0.9c0.4,0.4,0.7,0.8,0.9,1.3C1197.3,742,1197.4,742.5,1197.4,743.1z"/>
	<path d="M1221.7,753.9c1.7,0.7,3.1,1.6,4.3,2.9c1.2,1.2,2.2,2.8,2.8,4.6s1,3.9,1,6.3c0,0.9-0.1,1.5-0.3,1.8
		c-0.2,0.3-0.6,0.5-1.1,0.5h-21.9c0,2.1,0.3,3.9,0.8,5.4c0.5,1.5,1.2,2.8,2.1,3.9c0.9,1,2,1.8,3.2,2.3c1.3,0.5,2.7,0.8,4.2,0.8
		c1.5,0,2.7-0.2,3.8-0.5s2-0.7,2.7-1.1c0.8-0.4,1.4-0.8,1.9-1.1c0.5-0.3,0.9-0.5,1.3-0.5c0.5,0,0.8,0.2,1.1,0.6l1.6,2.1
		c-0.7,0.9-1.6,1.6-2.6,2.3c-1,0.6-2.1,1.2-3.2,1.6c-1.1,0.4-2.3,0.7-3.5,0.9c-1.2,0.2-2.4,0.3-3.6,0.3c-2.3,0-4.4-0.4-6.3-1.2
		c-1.9-0.8-3.6-1.9-5-3.4s-2.5-3.3-3.3-5.5s-1.2-4.7-1.2-7.5c0-2.3,0.4-4.4,1.1-6.4s1.7-3.7,3-5.2c1.3-1.5,2.9-2.6,4.8-3.4
		c1.9-0.8,4.1-1.3,6.4-1.3C1218.3,752.9,1220.1,753.2,1221.7,753.9z M1209.8,759.6c-1.6,1.6-2.6,3.9-3,6.7h17.9
		c0-1.3-0.2-2.6-0.6-3.7c-0.4-1.1-0.9-2.1-1.6-2.9c-0.7-0.8-1.6-1.4-2.6-1.9c-1-0.4-2.2-0.7-3.5-0.7
		C1213.6,757.2,1211.4,758,1209.8,759.6z"/>
	<path d="M1249.1,786.8c-4.2,0-7.7-1.5-10.3-4.5c-2.8-3.1-4.2-7.2-4.2-12.5c0-5,1.3-9.1,4-12.2c2.8-3.2,6.6-4.8,11.5-4.8
		c2.5,0,5.8,0.8,9.8,2.4v8.5h-2.6c-0.6,0-1-0.3-1.1-0.9c-0.1-0.2-0.2-1.1-0.3-2.4c-0.1-1.4-0.2-2.1-0.2-2.2c-1-0.3-1.8-0.5-2.4-0.6
		c-1.3-0.2-2.5-0.3-3.7-0.3s-2.4,0.3-3.6,0.9s-2.2,1.4-3.1,2.5c-1.7,2.2-2.5,5.2-2.5,9.1c0,3.9,0.9,7,2.6,9.2c1.7,2.1,4,3.2,7,3.2
		c2.7,0,5.1-0.9,7.2-2.7c0.4-0.3,0.8-0.5,1.3-0.5s0.8,0.2,1,0.6l1.6,2.1C1258.5,785.1,1254.5,786.8,1249.1,786.8z"/>
	<path d="M1270.7,784.7c-1.4-1.5-2.1-3.5-2.1-6.3v-20.2h-4c-0.3,0-0.6-0.1-0.9-0.3s-0.4-0.5-0.4-1v-2.3l5.4-0.7l1.3-10.2
		c0-0.3,0.2-0.6,0.4-0.8c0.2-0.2,0.5-0.3,0.9-0.3h2.9v11.3h9.4v4.2h-9.4V778c0,1.4,0.3,2.4,1,3.1s1.5,1,2.6,1c0.6,0,1.1-0.1,1.6-0.2
		c0.4-0.2,0.8-0.3,1.2-0.5c0.3-0.2,0.6-0.4,0.8-0.5c0.2-0.2,0.4-0.2,0.6-0.2c0.3,0,0.6,0.2,0.8,0.6l1.7,2.8c-1,0.9-2.2,1.7-3.6,2.2
		c-1.4,0.5-2.9,0.8-4.4,0.8C1274.1,786.9,1272.1,786.1,1270.7,784.7z"/>
	<path d="M1309.9,754.6v2.3v6.1h-2.6c-0.6,0-1-0.3-1.1-0.9c0-0.1-0.2-1.5-0.4-4.3c-2-0.5-3.7-0.7-5.1-0.7h-0.1
		c-1.8,0-3.3,0.5-4.5,1.4c-1.1,0.9-1.7,1.9-1.7,3c0,1.1,0.2,1.9,0.7,2.5c0.9,1,2.1,1.8,3.7,2.3c1.6,0.5,3,0.9,4,1.3s2.1,0.8,3.1,1.2
		c1,0.4,1.9,1,2.7,1.6c1.8,1.5,2.7,3.4,2.7,5.8c0,3.1-1.1,5.7-3.2,7.5c-2.2,2-5.1,3-8.7,3s-7.1-0.6-10.6-1.8v-8.6h2.3
		c0.5,0,0.9,0.3,1,0.8c0,0.2,0.2,1.6,0.4,4.2c1.9,0.9,4.1,1.3,6.7,1.3c2.1,0,3.8-0.5,5.1-1.6c1.1-1,1.7-2.1,1.7-3.3
		c0-1.2-0.2-2.2-0.7-2.7c-0.5-0.6-1.1-1.1-1.9-1.5c-0.8-0.4-1.7-0.8-2.8-1.1c-2.9-0.9-4.9-1.6-6.1-2.1c-1.2-0.5-2.2-1.1-3-1.8
		c-1.8-1.5-2.7-3.5-2.7-6.1c0-2.7,1-4.9,3.1-6.7c2.2-1.9,5.3-2.9,9.3-2.9C1303.5,752.9,1306.4,753.5,1309.9,754.6z"/>
</g>
</svg>
