<?xml version="1.0" encoding="UTF-8"?>
<svg width="133px" height="120px" viewBox="0 0 133 120" version="1.1" xmlns="http://www.w3.org/2000/svg" xmlns:xlink="http://www.w3.org/1999/xlink">
    <!-- Generator: Sketch 39.1 (31720) - http://www.bohemiancoding.com/sketch -->
    <title>cinema</title>
    <desc>Created with Sketch.</desc>
    <defs></defs>
    <g id="Page-1" stroke="none" stroke-width="1" fill="none" fill-rule="evenodd">
        <g id="Group-2" fill="#F7F7F7">
            <path d="M47.3036397,89.1205429 L47,89.2 C46.2,89.8 45.2,90.1 44.3,90.1 C43.3,90.2 42.4,89.9 41.6,89.4 L42.4,92.6 C42.6,93.2 43.1,93.5 43.7,93.4 L58.9,89.3 C58.6,89.2 58.4,88.9 58.3,88.6 L57.7,86.4 L47.3044214,89.1203383 L56.9,81.8 L57,81.8 C57.2,81.9 57.5,81.9 57.7,81.8 C58.3,81.6 58.7,81 58.5,80.4 L69.2,72.2 L72.7,71.1 L76.6,74.2 L76.7,69.2 L80.8,66.4 L78,65.4 L96.5,51.2 L96.9,52.6 C93.8,54.6 92.2,58.5 93.1,62.2 C94.1,65.9 97.4,68.5 101.1,68.7 L103.1,76.4 C103.2,77.3 102.8,77.9 102.3,78 L60.3,89.1 C60.5,88.8 60.5,88.5 60.5,88.2 L59.9,86 L99.5,75.6 L98.5,71.9 L98.1,71.8 C94.1,70.6 91,67.4 90,63.5 C89.4,61.1 89.5,58.5 90.4,56.2 L88.3,57.8 C87.9,59.8 87.9,61.9 88.4,63.9 C89.5,68.2 92.9,71.8 97.1,73.2 L97.5,74.6 L59.4,84.5 C59.1,84.2 58.7,84 58.2,84.1 C57.8,84.2 57.5,84.6 57.4,85 L50.2,86.9 L47.3036397,89.1205429 Z M92.7544984,0.652864249 C97.1723301,0.67078441 102.552868,3.77258974 104.781386,7.59659129 L131.320925,53.1368127 C133.54536,56.9538071 133.562629,63.141521 131.351995,66.9704516 L105.233036,112.209816 C103.025761,116.032929 97.6631602,119.117681 93.2372183,119.099728 L40.5284604,118.885924 C36.1106287,118.868003 30.7300911,115.766198 28.5015724,111.942197 L1.96203383,66.4019752 C-0.262401326,62.5849808 -0.279670535,56.3972669 1.9309636,52.5683363 L28.0499226,7.32897221 C30.2571982,3.50585882 35.6197986,0.421107333 40.0457404,0.439060392 L92.7544984,0.652864249 Z M106.4,75.8 L103.6,65.3 L102.1,65.5 C99.5,65.8 97,64.2 96.4,61.6 C95.7,59.1 97.1,56.4 99.5,55.4 L100.9,54.8 L99.4,49 C100,48.3 100.4,47.4 100.5,46.4 C100.7,45.1 100.3,43.8 99.5,42.8 L92.4,33.6 L91,34.4 C88.6,35.8 85.4,35.2 83.7,32.9 C82,30.7 82.2,27.5 84.2,25.5 L85.4,24.3 L78.3,15.1 C76.7,13 73.6,12.6 71.4,14.2 L19.9,53.8 C18.9,54.6 18.2,55.7 18,57.1 C17.8,58.4 18.2,59.7 19,60.7 L26.1,69.9 L27.5,69.1 C29.9,67.7 33.1,68.3 34.8,70.6 C36.5,72.8 36.3,76 34.3,78 L33.1,79.2 L36.2,83.2 L39,93.6 C39.4,95.1 40.4,96.2 41.7,96.7 C42.6,97.1 43.6,97.1 44.6,96.9 L103.2,81.5 C104.4,81.2 105.4,80.4 106,79.4 C106.6,78.2 106.7,77 106.4,75.8 Z M73.7,17.3 C74.2,16.9 74.9,17 75.3,17.5 L80.5,24.2 C78.2,27.5 78.3,32 80.8,35.3 C83.3,38.6 87.6,39.8 91.4,38.4 L96.6,45.1 C97,45.6 96.9,46.3 96.4,46.7 L59.5,75 C59.6,74.7 59.5,74.3 59.3,74 L57.8,72.1 L92.6,45.4 L90.1,42.1 L89.6,42.1 C85.2,42.6 80.8,40.7 78.1,37.2 C75.4,33.7 74.7,29 76.3,24.9 L76.5,24.5 L74,21.2 L39.2,47.9 L37.2,45.3 L73.7,17.3 Z M54.9,72.3 L44.9,80 L43.9,78.7 C45.5,74.1 44.7,69 41.7,65.2 C38.8,61.4 34,59.3 29.2,59.6 L28.2,58.3 L38.2,50.6 C38.4,50.7 38.7,50.8 38.9,50.8 C39.2,50.8 39.4,50.7 39.6,50.5 C40,50.2 40.2,49.6 40,49.1 L73.5,23.4 L74.5,24.7 C72.9,29.3 73.7,34.4 76.7,38.2 C79.6,42 84.4,44.1 89.2,43.8 L90.2,45.1 L56.7,70.9 C56.3,70.7 55.8,70.7 55.4,71 C55,71.3 54.8,71.8 54.9,72.3 Z M43,52.9 C42.6,52.4 41.8,52.3 41.3,52.7 C40.8,53.1 40.7,53.9 41.1,54.4 L45.1,59.7 C45.3,60 45.7,60.2 46.1,60.2 C46.4,60.2 46.6,60.1 46.8,59.9 C47.3,59.5 47.4,58.7 47,58.2 L43,52.9 Z M50.1,62.1 C49.7,61.6 48.9,61.5 48.4,61.9 C47.9,62.3 47.8,63.1 48.2,63.6 L52.2,68.9 C52.4,69.2 52.8,69.4 53.2,69.4 C53.5,69.4 53.7,69.3 53.9,69.1 C54.4,68.7 54.5,67.9 54.1,67.4 L50.1,62.1 Z M60.2,55.8 L64.3,52.4 L69.4,53.8 L67.4,48.8 L70.3,44.4 L65,44.8 L61.7,40.6 L60.4,45.8 L55.4,47.7 L59.9,50.5 L60.2,55.8 Z M38.1,79.3 C40.4,76 40.3,71.5 37.8,68.2 C35.3,64.9 31,63.7 27.2,65.1 L22,58.4 C21.6,57.9 21.7,57.2 22.2,56.8 L35.2,46.8 L37.2,49.4 L26,58.1 L28.5,61.4 L29,61.4 C33.4,60.9 37.8,62.8 40.5,66.3 C43.2,69.8 43.9,74.5 42.3,78.6 L42.1,79 L44.6,82.3 L55.8,73.7 L57.3,75.6 C57.5,75.9 57.9,76.1 58.2,76.1 L44.9,86.3 C44.4,86.7 43.7,86.6 43.3,86.1 L38.1,79.3 Z" id="cinema"></path>
        </g>
    </g>
</svg>