<?xml version="1.0" encoding="UTF-8"?>
<svg width="133px" height="120px" viewBox="0 0 133 120" version="1.1" xmlns="http://www.w3.org/2000/svg" xmlns:xlink="http://www.w3.org/1999/xlink">
    <!-- Generator: Sketch 39.1 (31720) - http://www.bohemiancoding.com/sketch -->
    <title>distributor</title>
    <desc>Created with Sketch.</desc>
    <defs></defs>
    <g id="Page-1" stroke="none" stroke-width="1" fill="none" fill-rule="evenodd">
        <g id="Group" fill="#F7F7F7">
            <path d="M92.7544984,0.652864249 C97.1723301,0.67078441 102.552868,3.77258974 104.781386,7.59659129 L131.320925,53.1368127 C133.54536,56.9538071 133.562629,63.141521 131.351995,66.9704516 L105.233036,112.209816 C103.025761,116.032929 97.6631602,119.117681 93.2372183,119.099728 L40.5284604,118.885924 C36.1106287,118.868003 30.7300911,115.766198 28.5015724,111.942197 L1.96203383,66.4019752 C-0.262401326,62.5849808 -0.279670535,56.3972669 1.9309636,52.5683363 L28.0499226,7.32897221 C30.2571982,3.50585882 35.6197986,0.421107333 40.0457404,0.439060392 L92.7544984,0.652864249 Z M93.9695652,55.0625 C94.0630435,55.8125 94.8108696,56.375 95.5586957,56.28125 L102.756522,55.25 C103.504348,55.15625 104.065217,54.40625 103.971739,53.65625 C103.878261,52.90625 103.130435,52.34375 102.382609,52.4375 L95.1847826,53.46875 C94.4369565,53.65625 93.876087,54.3125 93.9695652,55.0625 Z M103.971739,72.40625 L98.923913,70.25 C98.176087,69.96875 97.4282609,70.25 97.0543478,71 C96.773913,71.75 97.0543478,72.5 97.8021739,72.875 L102.85,75.03125 C103.130435,75.125 103.317391,75.125 103.597826,75.125 C104.065217,75.03125 104.532609,74.75 104.719565,74.28125 C105.093478,73.53125 104.719565,72.6875 103.971739,72.40625 Z M93.9695652,39.5 C94.25,39.5 94.4369565,39.40625 94.623913,39.21875 L98.8304348,35.75 C99.3913043,35.28125 99.4847826,34.34375 99.0173913,33.78125 C98.55,33.21875 97.6152174,33.125 97.0543478,33.59375 L92.8478261,37.0625 C92.2869565,37.53125 92.1934783,38.46875 92.6608696,39.03125 C93.0347826,39.40625 93.5021739,39.59375 93.9695652,39.5 Z M87.426087,22.90625 C87.2391304,21.59375 86.023913,20.75 84.8086957,20.9375 C83.5,21.125 82.6586957,22.34375 82.8456522,23.5625 L83.2195652,26 L33.2086957,51.875 C31.3391304,52.8125 29.6565217,53.65625 29.4695652,53.65625 C29.2826087,53.65625 27.4130435,53.1875 25.45,52.53125 L22.6456522,51.59375 C22.1782609,51.40625 21.7108696,51.40625 21.2434783,51.40625 C20.1217391,51.59375 19.373913,52.625 19.5608696,54.125 L22.6456522,76.4375 C22.8326087,77.9375 23.7673913,78.6875 24.9826087,78.59375 C25.3565217,78.5 25.823913,78.40625 26.2913043,78.03125 L28.7217391,76.34375 C30.4043478,75.21875 31.9934783,74.1875 32.273913,74.1875 C32.5543478,74.1875 34.423913,74.46875 36.3869565,74.84375 L44.5195652,76.53125 L43.2108696,82.8125 C42.8369565,84.6875 43.2108696,86.5625 44.2391304,88.0625 C45.2673913,89.65625 46.8565217,90.6875 48.726087,91.0625 L64.3369565,94.15625 C65.0847826,94.34375 65.926087,94.34375 66.673913,94.25 C67.7021739,94.0625 68.7304348,93.6875 69.5717391,93.125 C71.1608696,92.09375 72.1891304,90.5 72.5630435,88.625 L73.7782609,82.4375 L91.4456522,86.09375 L91.8195652,88.53125 C92.0065217,89.84375 93.2217391,90.6875 94.4369565,90.5 C95.7456522,90.3125 96.5869565,89.09375 96.4,87.875 L87.426087,22.90625 Z M87.2391304,74 C87.1456522,73.625 86.8652174,73.34375 86.4913043,73.4375 C86.1173913,73.53125 85.8369565,73.8125 85.9304348,74.1875 L86.7717391,80.28125 L83.5,79.625 L82.8456522,74.65625 C82.7521739,74.28125 82.4717391,74 82.0978261,74.09375 C81.723913,74.1875 81.4434783,74.46875 81.5369565,74.84375 L82.1913043,79.34375 L78.9195652,78.6875 L77.8913043,73.4375 C77.7978261,73.0625 77.5173913,72.78125 77.1434783,72.875 C76.7695652,72.96875 76.4891304,73.25 76.5826087,73.625 L77.2369565,78.40625 L73.9652174,77.75 L73.2173913,73.15625 C73.123913,72.78125 72.8434783,72.5 72.4695652,72.59375 C72.0956522,72.6875 71.8152174,72.96875 71.9086957,73.34375 L72.4695652,77.375 L69.1978261,76.71875 L68.823913,73.71875 C68.7304348,73.34375 68.45,73.0625 68.076087,73.15625 C67.7021739,73.25 67.4217391,73.53125 67.5152174,73.90625 L67.8891304,76.34375 L64.6173913,75.6875 L63.8695652,72.5 C63.776087,72.125 63.4956522,71.84375 63.1217391,71.9375 C62.7478261,72.03125 62.4673913,72.3125 62.5608696,72.6875 L62.9347826,75.40625 L59.6630435,74.75 L59.476087,73.15625 C59.3826087,72.78125 59.1021739,72.5 58.7282609,72.59375 C58.3543478,72.6875 58.073913,72.96875 58.1673913,73.34375 L58.3543478,74.46875 L37.6021739,70.15625 C35.7326087,69.78125 34.6108696,69.59375 33.7695652,69.5 L32.1804348,57.78125 C32.9282609,57.5 34.05,56.9375 35.6391304,56.09375 L74.9,35.75 L77.8913043,57.5 C77.9847826,58.25 78.7326087,58.8125 79.4804348,58.71875 C80.2282609,58.625 80.7891304,57.875 80.6956522,57.125 L77.5173913,34.4375 L83.6869565,31.25 L90.6043478,81.21875 L88.173913,80.65625 L87.2391304,74 Z M60.6913043,47.65625 L51.8108696,52.25 C51.1565217,52.625 50.876087,53.46875 51.25,54.125 C51.5304348,54.6875 52.0913043,54.96875 52.6521739,54.875 C52.8391304,54.875 52.9326087,54.78125 53.1195652,54.6875 L62,50.09375 C62.6543478,49.71875 62.9347826,48.875 62.5608696,48.21875 C62.2804348,47.65625 61.4391304,47.375 60.6913043,47.65625 Z M81.1630435,62.5625 C81.0695652,61.8125 80.3217391,61.25 79.573913,61.34375 C78.826087,61.4375 78.2652174,62.1875 78.3586957,62.9375 L78.7326087,65.75 C78.826087,66.5 79.573913,67.0625 80.3217391,66.96875 C81.0695652,66.875 81.6304348,66.125 81.5369565,65.375 L81.1630435,62.5625 Z M53.9608696,81.59375 L54.6152174,78.5 L63.776087,80.375 L63.2152174,83.375 L53.9608696,81.59375 Z M67.9826087,87.78125 C67.8891304,88.34375 67.5152174,88.90625 66.9543478,89.28125 C66.3934783,89.65625 65.8326087,89.75 65.1782609,89.65625 L49.5673913,86.5625 C49.0065217,86.46875 48.4456522,86.09375 48.0717391,85.53125 C47.6978261,84.96875 47.6043478,84.40625 47.6978261,83.75 L49.0065217,77.46875 L51.7173913,78.03125 L50.9695652,81.59375 C50.6891304,82.90625 51.5304348,84.125 52.8391304,84.3125 L62.9347826,86.28125 C63.2152174,86.375 63.4956522,86.375 63.6826087,86.28125 C64.6173913,86.1875 65.4586957,85.4375 65.6456522,84.40625 L66.3,80.9375 L69.0108696,81.5 L67.9826087,87.78125 Z M26.7586957,71.9375 L24.7021739,57.21875 C27.226087,58.0625 28.3478261,58.25 29.0956522,58.34375 L30.6847826,69.6875 C30.0304348,69.875 28.9086957,70.4375 26.7586957,71.9375 Z" id="distributor"></path>
        </g>
    </g>
</svg>